<?xml version="1.0" encoding="UTF-8" standalone="no"?>
<!-- Created with Inkscape (http://www.inkscape.org/) -->

<svg
   version="1.1"
   id="svg9"
   xml:space="preserve"
   width="2560"
   height="1440"
   viewBox="0 0 2560 1440"
   sodipodi:docname="logo-chapter.svg"
   inkscape:version="1.1 (c4e8f9ed74, 2021-05-24)"
   xmlns:inkscape="http://www.inkscape.org/namespaces/inkscape"
   xmlns:sodipodi="http://sodipodi.sourceforge.net/DTD/sodipodi-0.dtd"
   xmlns="http://www.w3.org/2000/svg"
   xmlns:svg="http://www.w3.org/2000/svg"><defs
     id="defs13"><clipPath
       clipPathUnits="userSpaceOnUse"
       id="clipPath27"><path
         d="M 0,1080 H 1920 V 0 H 0 Z"
         id="path25" /></clipPath></defs><sodipodi:namedview
     id="namedview11"
     pagecolor="#ffffff"
     bordercolor="#666666"
     borderopacity="1.0"
     inkscape:pageshadow="2"
     inkscape:pageopacity="0.0"
     inkscape:pagecheckerboard="0"
     showgrid="false"
     inkscape:zoom="0.34791667"
     inkscape:cx="1280.479"
     inkscape:cy="720"
     inkscape:window-width="1360"
     inkscape:window-height="731"
     inkscape:window-x="0"
     inkscape:window-y="0"
     inkscape:window-maximized="1"
     inkscape:current-layer="g15" /><g
     id="g15"
     inkscape:groupmode="layer"
     inkscape:label="Copy of Google-DSC-Lockup-Centered-Chapter"
     transform="matrix(1.3333333,0,0,-1.3333333,0,1440)"><text
       transform="matrix(1,0,0,-1,524.0732,437.7012)"
       style="font-variant:normal;font-weight:normal;font-stretch:normal;font-size:61.1789px;font-family:'Google Sans Display';-inkscape-font-specification:GoogleSansDisplay-Regular;writing-mode:lr-tb;fill:#656c73;fill-opacity:1;fill-rule:nonzero;stroke:none"
       id="text19"><tspan
         x="0 48.698406 83.386841 118.07528 153.43668 165.30539 198.342 211.92371 254.50423 286.92905 317.33496 350.37155 362.24026 396.6228 433.08542 466.12204 487.90173 499.64807 531.70581 552.99609 585.9715 621.14935 654.18597 685.93781 707.22809 719.58624 763.5127 775.68726 808.96857 844.15259"
         y="0"
         sodipodi:role="line"
         id="tspan17">Google Developer Student Clubs</tspan></text><g
       id="g21"><g
         id="g23"
         clip-path="url(#clipPath27)"><g
           id="g29"
           transform="translate(896.7373,599.1167)"><path
             d="m 0,0 39.222,22.645 c 9.231,5.329 12.394,17.133 7.064,26.363 -5.329,9.23 -17.131,12.393 -26.363,7.064 l -67.774,-39.13 z"
             style="fill:#ea4335;fill-opacity:1;fill-rule:nonzero;stroke:none"
             id="path31" /></g><g
           id="g33"
           transform="translate(926.292,540.9146)"><path
             d="m 0,0 c 6.67,0 13.157,3.461 16.731,9.653 5.33,9.23 2.167,21.034 -7.064,26.363 l -67.773,39.128 c -9.231,5.332 -21.034,2.166 -26.363,-7.064 -5.329,-9.231 -2.167,-21.034 7.064,-26.363 L -9.631,2.589 C -6.592,0.834 -3.273,0 0,0"
             style="fill:#4285f4;fill-opacity:1;fill-rule:nonzero;stroke:none"
             id="path35" /></g><g
           id="g37"
           transform="translate(993.709,540.9146)"><path
             d="M 0,0 C 3.274,0 6.592,0.834 9.632,2.589 L 77.405,41.717 30.163,59.011 -9.667,36.016 C -18.897,30.687 -22.061,18.883 -16.731,9.653 -13.157,3.461 -6.669,0 0,0"
             style="fill:#fbbc04;fill-opacity:1;fill-rule:nonzero;stroke:none"
             id="path39" /></g><g
           id="g41"
           transform="translate(1061.4463,580.043)"><path
             d="m 0,0 c 6.671,0 13.156,3.46 16.731,9.653 5.33,9.23 2.167,21.033 -7.063,26.363 l -67.773,39.13 c -9.231,5.328 -21.033,2.167 -26.364,-7.064 -5.329,-9.23 -2.166,-21.033 7.065,-26.363 L -9.631,2.589 C -6.592,0.835 -3.273,0 0,0"
             style="fill:#0f9d58;fill-opacity:1;fill-rule:nonzero;stroke:none"
             id="path43" /></g></g></g><text
       transform="scale(1,-1)"
       style="font-variant:normal;font-weight:normal;font-stretch:normal;font-size:43.0092px;font-family:'Google Sans Display';-inkscape-font-specification:GoogleSansDisplay-Regular;writing-mode:lr-tb;fill:#656c73;fill-opacity:1;fill-rule:nonzero;stroke:none"
       id="text47"
       x="589.25037"
       y="-372.01205"><tspan
         sodipodi:role="line"
         id="tspan45"
         x="589.25037"
         y="-372.01205">Universidad Autónoma de Baja California</tspan></text></g></svg>
